<svg xmlns="http://www.w3.org/2000/svg" viewBox="0 0 512 512">
  <rect width="512" height="512" fill="#4CAF50"/>
  <path fill="#fff" transform="translate(128 128) scale(0.110007 -0.110007) translate(-515.0 -694.5)" d="M524 -20Q305 -20 187.5 75.0Q70 170 31 382L324 425Q342 316 391.0 263.5Q440 211 526 211Q614 211 659.5 270.0Q705 329 705 439V1178H424V1409H999V446Q999 226 874.0 103.0Q749 -20 524 -20Z"/>
  <path fill="#fff" transform="translate(384 128) scale(0.110007 -0.110007) translate(-738.0 -704.5)" d="M1133 0 1008 360H471L346 0H51L565 1409H913L1425 0ZM739 1192 733 1170Q723 1134 709.0 1088.0Q695 1042 537 582H942L803 987L760 1123Z"/>
  <path fill="#fff" transform="translate(128 384) rotate(180) scale(0.110007 -0.110007) translate(-738.0 -704.5)" d="M1133 0 1008 360H471L346 0H51L565 1409H913L1425 0ZM739 1192 733 1170Q723 1134 709.0 1088.0Q695 1042 537 582H942L803 987L760 1123Z"/>
  <path fill="#fff" transform="translate(384 384) rotate(180) scale(0.110007 -0.110007) translate(-787.0 -704.5)" d="M1105 0 778 535H432V0H137V1409H841Q1093 1409 1230.0 1300.5Q1367 1192 1367 989Q1367 841 1283.0 733.5Q1199 626 1056 592L1437 0ZM1070 977Q1070 1180 810 1180H432V764H818Q942 764 1006.0 820.0Q1070 876 1070 977Z"/>
</svg>
